<!-- Generated by IcoMoon.io -->
<svg version="1.1" xmlns="http://www.w3.org/2000/svg" width="24" height="24" fill="#c79002" viewBox="0 0 24 24">
<title>select-icon</title>
<path d="M2.454 7.939c0.281-0.281 0.663-0.439 1.060-0.439s0.779 0.158 1.060 0.439l7.425 7.425 7.425-7.425c0.283-0.273 0.662-0.424 1.055-0.421s0.77 0.161 1.048 0.439c0.278 0.278 0.436 0.654 0.439 1.048s-0.148 0.772-0.421 1.055l-8.485 8.486c-0.281 0.281-0.663 0.439-1.061 0.439s-0.779-0.158-1.060-0.439l-8.486-8.486c-0.281-0.281-0.439-0.663-0.439-1.061s0.158-0.779 0.439-1.061z"></path>
</svg>
